<?xml version="1.0" encoding="UTF-8"?>
<svg width="161px" height="30px" viewBox="0 0 161 30" version="1.1" xmlns="http://www.w3.org/2000/svg" xmlns:xlink="http://www.w3.org/1999/xlink">
    <title>Logo</title>
    <g id="♻️-Symbols" stroke="none" stroke-width="1" fill="none" fill-rule="evenodd">
        <g id="ui-base-/-header-/-group-/-mobile-/-default" transform="translate(-20.000000, -25.000000)" fill="#FEFEFE" fill-rule="nonzero">
            <g id="Logo" transform="translate(20.000000, 25.000000)">
                <path d="M150.291417,9.55860534 C150.243121,10.2540801 149.668937,10.8215875 148.998161,10.8215875 C148.316652,10.8215875 147.79613,10.2485163 147.844426,9.54747774 C147.887355,8.84643917 148.466906,8.27893175 149.143048,8.27893175 C149.81919,8.27893175 150.334347,8.85200297 150.291417,9.55860534 M160.97561,14.0096439 C160.970173,13.3920623 160.503313,13.069362 159.752043,13.069362 C157.868504,13.069362 155.582499,14.6160979 153.715058,17.5482196 L155.09954,14.2878338 C155.308822,13.7926558 155.131737,13.4310089 154.702441,13.4310089 C154.63268,13.4310089 154.562919,13.4421365 154.487792,13.4588279 C154.487792,13.4588279 154.128256,13.5478487 151.783223,14.1042285 C152.271548,14.3267804 152.389605,14.4603116 152.174956,14.944362 L147.447326,25.6936202 L147.64051,25.8327151 L150.286051,25.4209941 C154.455595,15.4451039 157.40701,14.5159496 158.024124,14.5159496 C158.233406,14.5159496 158.389026,14.6550445 158.394393,14.9888724 C158.399759,15.3004451 158.217308,15.9402819 157.632391,16.9918398 L160.127678,15.8679525 C160.680398,15.2169881 160.980905,14.5548961 160.97561,14.0096439 M148.332751,14.3045252 C148.536667,13.8482938 148.445441,13.4810831 147.962482,13.4810831 C147.860524,13.4810831 147.747834,13.4977745 147.619045,13.5311573 L144.941306,14.2099407 C145.418899,14.4436202 145.504758,14.5437685 145.24718,15.1057122 C143.894896,18.0378338 142.71433,20.6194362 141.238622,23.9744065 C140.744931,25.1038576 141.158129,25.9161721 142.386991,25.9161721 C144.635433,25.9161721 146.30969,24.8312315 146.647761,24.5530415 L147.409763,23.3902077 C146.078943,24.5029674 144.994969,24.870178 144.265164,24.870178 C143.755374,24.870178 143.889529,24.3972552 144.018319,24.1079377 C146.873142,17.5982938 148.332751,14.3045252 148.332751,14.3045252 M117.138977,6.23145401 C117.364358,6.09792285 117.906345,5.80860534 118.335642,5.6194362 C117.380457,5.72514837 116.602356,5.86980712 115.904749,6.03115727 C112.041079,6.93249258 110.339991,10.1261128 108.880382,13.4477003 C107.737379,16.0515579 106.658771,18.861276 105.725051,20.8976261 C105.043542,22.3720326 103.884441,24.4417656 102.741438,25.0704748 L102.269212,25.9940653 C104.807429,24.7032641 106.728532,23.3790801 108.241803,21.0255935 C109.921426,18.4272997 110.914175,15.3727745 112.218164,12.5630564 C113.334335,10.1539318 114.820775,7.55563798 117.138977,6.23145401 M122.623243,7.35534125 C122.623243,3.14910979 118.448332,1.31862018 114.123168,1.31862018 C107.839337,1.31862018 101.249632,5.21884273 101.249632,11.5782641 C101.249632,13.5812315 102.086761,15.6676558 103.868342,16.9974036 L106.47632,16.9974036 C103.74492,15.5174332 102.440931,13.3642433 102.440931,10.8160237 C102.440931,5.54154303 107.941295,2.28115727 112.872841,2.28115727 C116.849202,2.28115727 119.763054,4.10051929 119.763054,8.07307122 C119.763054,11.2889466 117.2624,13.6646884 114.171464,14.3045252 L114.300253,14.5994065 C115.813524,14.888724 117.326795,16.5912463 117.326795,19.3397626 C117.326795,25.9885015 110.908809,29.1320475 104.963049,29.1320475 C100.755941,29.1320475 97.6328075,27.5074184 97.6328075,24.9425074 C97.6328075,23.5014837 98.673852,22.2385015 100.047602,21.8156528 L100.042235,21.754451 C97.466455,21.9380564 95.4165631,23.2121662 95.4165631,25.3764837 C95.4165631,28.6702522 100.391039,30 104.684006,30 C113.076757,30 120.43383,25.8939169 120.43383,18.7166172 C120.43383,16.7470326 119.37132,14.7718843 117.686331,13.759273 C120.707506,12.3850148 122.623243,10.3542285 122.623243,7.35534125 M84.8504975,17.4369436 C85.2153997,16.6524481 85.7198234,15.5341246 85.7198234,14.6772997 C85.7198234,13.4977745 84.7056099,13.3364141 83.8845799,13.3364141 C81.5395465,13.3364141 79.3876967,15.8623887 78.008581,17.7373887 C78.2017645,17.2978487 78.4593425,16.7080861 78.7061882,16.129451 C79.1086538,15.1724777 79.5111195,14.1932493 79.5111195,13.9762611 C79.5111195,13.6646884 79.2750063,13.5200297 79.0227945,13.5200297 C78.8027799,13.5200297 78.2446942,13.6535608 77.6973408,13.7982196 C77.1392551,13.9428783 76.5650707,14.1042285 76.0016188,14.2377596 C76.49531,14.4547478 76.5758032,14.6606083 76.366521,15.1836053 C75.5508572,17.2088279 72.07892,24.8256677 71.6603557,25.7659496 L71.8696378,25.8994807 L74.5366437,25.5211424 C75.9479567,22.3553412 78.7061882,16.8249258 81.5985748,14.9387982 C81.8829839,14.7551929 82.3766751,14.4714392 82.7737746,14.4714392 C82.9991554,14.4714392 83.0742823,14.6105341 83.0742823,14.7997033 C83.0742823,15.111276 82.8971974,15.6565282 82.5591262,16.4744065 C81.2927009,19.5344955 79.7311341,22.4332344 78.4754412,25.643546 L78.6793571,25.7770772 L81.2605037,25.4209941 C81.7219976,24.3694362 82.0171391,23.7574184 82.0171391,23.7574184 C83.476748,20.541543 85.8486124,16.4632789 88.4082941,14.860905 C88.6658721,14.6995549 89.073704,14.4658754 89.4547049,14.4658754 C89.6854519,14.4658754 89.7981423,14.6049703 89.7981423,14.8553412 C89.7981423,15.5953264 87.8448422,19.2674332 87.3940806,20.1910237 C86.889657,21.2370178 85.6876261,23.5793769 85.6876261,24.6643175 C85.6876261,25.5378338 86.4174306,25.9217359 87.2116295,25.9217359 C88.4887873,25.9217359 89.8088747,25.4432493 91.1396945,24.6086795 L92.0036542,23.3735163 C90.7586937,24.3304896 89.7498464,24.8590504 88.9556474,24.8590504 C88.6336749,24.8590504 88.4887873,24.7199555 88.4887873,24.4528932 C88.4887873,24.0912463 88.6819708,23.6238872 88.8214922,23.2956231 C89.7444802,21.0200297 91.0860324,18.7611276 92.0412176,16.4966617 C92.2719646,15.9458457 92.5080778,15.3227003 92.5080778,14.6884273 C92.5080778,13.5645401 91.6065547,13.3364141 90.7801585,13.3364141 C88.4458576,13.3308605 86.3369374,15.5953264 84.8504975,17.4369436 M61.4645585,9.55860534 C61.5074881,8.85200297 60.9923321,8.27893175 60.3108235,8.27893175 C59.6346812,8.27893175 59.0551306,8.84087537 59.0122009,9.54747774 C58.9692713,10.2485163 59.4844273,10.8215875 60.1659359,10.8215875 C60.8420782,10.8215875 61.4216288,10.2540801 61.4645585,9.55860534 M59.2590466,14.3045252 C59.4575963,13.8482938 59.3717369,13.4810831 58.8941443,13.4810831 C58.7921864,13.4810831 58.679496,13.4977745 58.550707,13.5311573 L55.8729686,14.2099407 C56.3505612,14.4436202 56.4364206,14.5437685 56.1734763,15.1057122 C54.7997268,18.087908 53.6191608,20.6750742 52.1649182,23.9744065 C51.6658607,25.1038576 52.0790588,25.9161721 53.3079207,25.9161721 C55.5563623,25.9161721 57.2306195,24.8367953 57.5686907,24.5586053 L58.3306924,23.3902077 C56.9998725,24.5085312 55.7924755,24.870178 55.1860939,24.870178 C54.676304,24.870178 54.805093,24.3972552 54.9338821,24.1079377 C57.8048039,17.5982938 59.2590466,14.3045252 59.2590466,14.3045252 M55.6583203,6.81008902 C55.85687,6.35385757 55.7656445,5.98108309 55.2880519,5.98108309 C55.1914601,5.98108309 55.0734035,5.99777448 54.9446145,6.03115727 L52.288341,6.69881306 C52.7659336,6.93249258 52.8517929,7.03264095 52.5942149,7.59458457 C51.2204654,10.5767804 46.745047,20.6695104 45.2908044,23.9688427 C44.7917469,25.0982938 45.2103113,25.9106083 46.4338069,25.9106083 C48.6876147,25.9106083 50.3296747,24.8423591 50.6677459,24.5641691 L51.4243813,23.4013353 C50.0989277,24.514095 48.9988548,24.8757418 48.285149,24.8757418 C47.7753592,24.8757418 47.9041482,24.402819 48.0329372,24.1079377 C54.1987114,10.1038576 55.6583203,6.81008902 55.6583203,6.81008902 M131.364798,6.81008902 C131.568714,6.35385757 131.477488,5.98108309 130.994529,5.98108309 C130.892571,5.98108309 130.779881,5.99777448 130.651092,6.03115727 L127.994818,6.69881306 C128.472411,6.93249258 128.55827,7.03264095 128.300692,7.59458457 C126.926943,10.5767804 122.446158,20.6695104 120.997282,23.9688427 C120.498224,25.0982938 120.916789,25.9106083 122.140284,25.9106083 C124.394092,25.9106083 126.036152,24.8423591 126.374223,24.5641691 L127.130859,23.4013353 C125.810771,24.514095 124.705332,24.8757418 123.991626,24.8757418 C123.481836,24.8757418 123.610625,24.402819 123.739415,24.1079377 C129.905189,10.1038576 131.364798,6.81008902 131.364798,6.81008902 M40.8368509,9.55860534 C40.8797806,8.85200297 40.3646245,8.27893175 39.6831159,8.27893175 C39.0069736,8.27893175 38.427423,8.84087537 38.3844933,9.54747774 C38.3415637,10.2485163 38.8620859,10.8215875 39.5382283,10.8215875 C40.2143706,10.8215875 40.7939212,10.2540801 40.8368509,9.55860534 M48.8807982,6.81008902 C49.079348,6.35385757 48.9934886,5.98108309 48.5105298,5.98108309 C48.4085718,5.98108309 48.2958815,5.99777448 48.1670924,6.03115727 L45.510819,6.69881306 C45.9884116,6.93249258 46.0742709,7.03264095 45.8166929,7.59458457 C44.4429434,10.5767804 39.967525,20.6695104 38.5132824,23.9688427 C38.0142249,25.0982938 38.4327892,25.9106083 39.6562849,25.9106083 C41.9100927,25.9106083 43.5521527,24.8423591 43.8902238,24.5641691 L44.6522255,23.4013353 C43.3214057,24.5196588 42.2159666,24.8813056 41.507627,24.8813056 C40.9978371,24.8813056 41.1266262,24.4083828 41.2554152,24.1135015 C47.4211894,10.1038576 48.8807982,6.81008902 48.8807982,6.81008902 M38.6367052,14.3045252 C38.8352549,13.8482938 38.7493956,13.4810831 38.2664367,13.4810831 C38.1644788,13.4810831 38.0517884,13.4977745 37.9229994,13.5311573 L35.2398948,14.2099407 C35.7174874,14.4436202 35.8033468,14.5437685 35.5457688,15.1057122 C34.166653,18.0934718 32.986087,20.6750742 31.5372106,23.9744065 C31.0381532,25.1038576 31.4567175,25.9161721 32.6802131,25.9161721 C34.9340209,25.9161721 36.6029119,24.8367953 36.9409831,24.5586053 L37.6976186,23.3957715 C36.3721649,24.514095 35.2291624,24.870178 34.5583863,24.870178 C34.0485964,24.870178 34.1773854,24.3972552 34.3061745,24.1079377 C37.1770963,17.5982938 38.6367052,14.3045252 38.6367052,14.3045252 M48.7681079,1.36869436 L50.6033514,0 C49.7930538,0.0111275964 49.2939963,0.0111275964 48.8003051,0.0445103858 C40.1177789,0.695474777 34.7784009,7.57232938 30.5444619,14.6494807 C28.5535984,17.976632 25.9026911,23.9187685 22.7634588,25.9996291 C22.2322041,26.3445846 21.7331467,26.6561573 21.1482299,26.800816 C22.8654168,24.1357567 23.616686,20.4525223 24.2230677,17.3924332 C24.4699133,16.1461424 24.8562803,13.9762611 25.3338729,11.8620178 C25.8114655,9.74777448 26.3856499,7.71698813 27.0027639,6.72663205 C27.2442434,6.33716617 27.4749903,6.02559347 27.9096533,5.79191395 L27.9096533,5.0018546 C24.1908704,7.52781899 21.7116818,11.3724036 19.2807891,15.1335312 C17.2201648,18.3215875 12.8950003,25.754822 9.27817545,26.7785608 C12.1061676,22.2997033 16.608417,13.731454 16.608417,8.4458457 C16.608417,4.64577151 13.8984814,2.4981454 10.1421351,2.4981454 C4.5666439,2.4981454 0,6.38724036 0,12.0567507 C0,13.8538576 0.686874759,15.9347181 2.24844159,17.2422107 L4.85105298,17.2422107 C2.24307538,16.101632 0.992748674,13.6646884 0.992748674,11.3390208 C0.992748674,6.85459941 4.61493978,3.34940653 9.19768231,3.34940653 C12.4442388,3.34940653 13.8770166,5.60274481 13.8770166,8.53486647 C13.8770166,13.2474036 8.72008971,23.1008902 5.96722446,27.462908 L6.00478793,27.5574926 C6.519944,27.6465134 6.95997314,27.6632047 7.41610091,27.6632047 C8.1244405,27.6632047 8.91863944,27.518546 9.60014799,27.2904303 C11.9827448,26.4892433 14.5692576,23.7073442 16.9464882,20.4413947 C19.1251691,17.453635 21.1482299,14.3991098 22.5273456,12.2793027 C21.5184983,15.9959199 21.0784692,19.2952522 20.1071853,22.8171365 C19.688621,24.347181 19.2646905,26.0942136 18.4221957,27.4851632 L18.4597591,27.5630564 C18.8836897,27.6520772 19.2861553,27.6632047 19.7047196,27.6632047 C20.3432985,27.6632047 20.9926098,27.5408012 21.5936252,27.3182493 C25.1782529,26.0051929 28.7950778,20.4135757 31.751859,15.3060089 C33.705159,11.9343472 35.6530929,8.21772997 38.4113244,5.46364985 C40.9924709,2.88204748 44.1478019,1.2629822 48.7681079,1.36869436 M135.072848,22.2051187 C134.788439,22.9451039 134.536227,23.7240356 134.536227,24.347181 C134.536227,25.1761869 134.944059,25.9551187 136.285611,25.9551187 C137.562769,25.9495549 138.872124,25.4265579 139.934633,24.7199555 L140.669804,23.6127596 C139.478506,24.5085312 138.60918,24.9202522 137.879375,24.9202522 C137.358853,24.9202522 137.240796,24.6698813 137.240796,24.3249258 C137.240796,23.6628338 137.600332,22.7336795 137.884742,22.0326409 C139.285322,18.5497033 141.785976,13.2696588 141.785976,13.2696588 L138.952617,13.9373145 C138.41063,13.6646884 137.707657,13.5867953 137.12274,13.5867953 C134.50403,13.5867953 132.448772,15.1279674 131.048191,17.0029674 C129.706639,18.7945104 127.844564,22.2607567 127.844564,24.1524481 C127.844564,25.3041543 128.536805,26.0051929 129.787132,26.0051929 C131.879954,26.0051929 133.543478,24.4640208 135.072848,22.2051187 M138.05646,15.6287092 C134.933327,22.1216617 132.609758,24.6921365 131.17698,24.6921365 C130.75305,24.6921365 130.624261,24.4807122 130.624261,24.0522997 C130.624261,21.9825668 133.44152,17.4981454 134.203522,16.5077893 C135.158707,15.2614985 136.435865,14.1487389 137.820347,14.1487389 C138.14232,14.1487389 138.448194,14.226632 138.678941,14.3323442 L138.05646,15.6287092 M66.3263439,22.2051187 C66.0419348,22.9451039 65.789723,23.7240356 65.789723,24.347181 C65.789723,25.1761869 66.1975549,25.9551187 67.5391071,25.9551187 C68.8108987,25.9495549 70.1202537,25.4321217 71.1881293,24.7255193 L71.9232999,23.6183234 C70.7373677,24.514095 69.8680418,24.925816 69.1382374,24.925816 C68.6177151,24.925816 68.4996585,24.6754451 68.4996585,24.3304896 C68.4996585,23.6683976 68.8591945,22.7392433 69.1436036,22.0382047 C70.5441842,18.5552671 73.0448376,13.2752226 73.0448376,13.2752226 L70.2114792,13.9428783 C69.6694921,13.6702522 68.9665187,13.5923591 68.3816019,13.5923591 C65.7628919,13.5923591 63.7076339,15.1335312 62.3070533,17.0085312 C60.9708672,18.8000742 59.1034265,22.2663205 59.1034265,24.1580119 C59.1034265,25.3097181 59.7956675,26.0107567 61.0459942,26.0107567 C63.1388157,26.0051929 64.7969743,24.4640208 66.3263439,22.2051187 M69.3153223,15.6287092 C66.1921886,22.1216617 63.8686201,24.6921365 62.4304761,24.6921365 C62.0065456,24.6921365 61.8777566,24.4807122 61.8777566,24.0522997 C61.8777566,21.9825668 64.6950163,17.4981454 65.457018,16.5077893 C66.4175694,15.2614985 67.689361,14.1487389 69.0738429,14.1487389 C69.3958154,14.1487389 69.7016894,14.226632 69.9324364,14.3323442 L69.3153223,15.6287092" id="wb-logo-white"></path>
            </g>
        </g>
    </g>
</svg>